<?xml version="1.0" standalone="no"?>
<!DOCTYPE svg PUBLIC "-//W3C//DTD SVG 1.1//EN"
 "http://www.w3.org/Graphics/SVG/1.1/DTD/svg11.dtd">
<svg width="1140px" height="1290px" version="1.1"
 xmlns="http://www.w3.org/2000/svg" xmlns:xlink="http://www.w3.org/1999/xlink">
<ellipse cx="519.831336" cy="770.279422" rx="10.583797" ry="10.583797" stroke="blue" stroke-width="1" fill="none" /> 
<ellipse transform="translate(417.422795 1125.431469) rotate(18.843375)" rx="14.536390" ry="13.793922" stroke="red" fill="none" stroke-width= "1" /> 
<path d="M 894.693426,834.670885 A7.313975,6.135786 -74.700298 1,1 890.226656,842.868911" fill="none" stroke ="red" stroke-width="1" />
<path d="M 244.193025,1182.246355 A6.778064,6.778064 0.000000 1,1 245.151733,1181.100809" fill="none" stroke ="blue" stroke-width="1" />
<path d="M 522.927700,764.711517 A7.767759,7.767759 0.000000 0,1 521.786938,774.655256" fill="none" stroke ="blue" stroke-width="1" />
<ellipse cx="419.511763" cy="1121.263309" rx="5.320042" ry="5.320042" stroke="blue" stroke-width="1" fill="none" /> 
<path d="M 521.963066,774.860255 A5.529771,5.529771 0.000000 1,1 522.795344,764.460622" fill="none" stroke ="blue" stroke-width="1" />
<path d="M 227.671169,67.630334 A62.563418,62.563418 0.000000 0,1 147.884462,110.305524" fill="none" stroke ="blue" stroke-width="1" />
<line x1="894.537266" y1="846.518929" x2="898.587741" y2="838.544567"  fill="none" stroke ="green" stroke-width="1" />
<path d="M 287.786631,503.771147 A16.999533,16.999533 0.000000 1,1 283.922545,491.720515" fill="none" stroke ="blue" stroke-width="1" />
<path d="M 174.548496,54.080808 A22.261654,18.283824 -46.236600 1,1 184.346852,89.737857" fill="none" stroke ="red" stroke-width="1" />
<path d="M 184.225876,92.267871 A28.863043,19.686206 -20.949093 0,1 174.898614,53.886682" fill="none" stroke ="red" stroke-width="1" />
<path d="M 249.610688,1179.286703 A16.326654,16.326654 0.000000 0,1 228.300431,1187.311701" fill="none" stroke ="blue" stroke-width="1" />
<ellipse cx="331.024080" cy="1277.523557" rx="4.504871" ry="4.504871" stroke="blue" stroke-width="1" fill="none" /> 
<path d="M 253.869579,1175.222002 A19.913181,19.913181 0.000000 1,1 238.539280,1162.812036" fill="none" stroke ="blue" stroke-width="1" />
<line x1="203.242049" y1="85.298001" x2="215.675512" y2="69.420530"  fill="none" stroke ="green" stroke-width="1" />
<path d="M 233.949970,1187.319089 A8.655306,8.655306 0.000000 0,1 232.515946,1170.569754" fill="none" stroke ="blue" stroke-width="1" />
<line x1="165.310016" y1="102.870998" x2="179.800328" y2="98.494330"  fill="none" stroke ="green" stroke-width="1" />
<line x1="180.155278" y1="98.655390" x2="190.634131" y2="94.378517"  fill="none" stroke ="green" stroke-width="1" />
<line x1="207.582314" y1="80.579170" x2="212.002556" y2="75.983357"  fill="none" stroke ="green" stroke-width="1" />
<path d="M 308.852699,1172.229044 A13.263818,13.263818 0.000000 1,1 302.454472,1157.176950" fill="none" stroke ="blue" stroke-width="1" />
<line x1="189.703020" y1="94.306124" x2="203.092870" y2="85.387439"  fill="none" stroke ="green" stroke-width="1" />
<line x1="248.544663" y1="95.471623" x2="254.631558" y2="105.051778"  fill="none" stroke ="green" stroke-width="1" />
<ellipse cx="1079.600042" cy="361.183119" rx="5.164769" ry="5.164769" stroke="blue" stroke-width="1" fill="none" /> 
<line x1="305.317472" y1="1173.215211" x2="311.387637" y2="1169.324687"  fill="none" stroke ="green" stroke-width="1" />
<path d="M 1127.044941,422.995597 A7.624841,4.866842 86.081162 1,1 1127.142801,424.421929" fill="none" stroke ="red" stroke-width="1" />
<line x1="1130.142738" y1="428.046200" x2="1128.060499" y2="422.872011"  fill="none" stroke ="green" stroke-width="1" />
<line x1="275.518809" y1="495.080906" x2="272.373062" y2="502.445781"  fill="none" stroke ="green" stroke-width="1" />
<path d="M 303.351450,1157.627812 A10.285841,10.285841 0.000000 0,1 309.829146,1167.031926" fill="none" stroke ="blue" stroke-width="1" />
<ellipse transform="translate(292.929613 1175.267693) rotate(29.463869)" rx="30.255672" ry="27.765343" stroke="red" fill="none" stroke-width= "1" /> 
<line x1="158.721860" y1="104.076576" x2="165.938532" y2="100.131456"  fill="none" stroke ="green" stroke-width="1" />
<path d="M 249.633317,109.016419 A23.187706,23.187706 0.000000 0,1 239.261531,86.039710" fill="none" stroke ="blue" stroke-width="1" />
<line x1="280.068478" y1="506.696081" x2="281.009637" y2="513.567167"  fill="none" stroke ="green" stroke-width="1" />
<line x1="272.158546" y1="501.224072" x2="269.899328" y2="508.911254"  fill="none" stroke ="green" stroke-width="1" />
<path d="M 202.787944,0.882725 A40.159178,40.159178 0.000000 0,1 215.308758,52.159794" fill="none" stroke ="blue" stroke-width="1" />
<path d="M 481.306939,23.550882 A63.802768,55.035705 -81.853226 1,1 382.058705,3.035329" fill="none" stroke ="red" stroke-width="1" />
<line x1="277.105693" y1="489.972212" x2="278.391339" y2="496.319458"  fill="none" stroke ="green" stroke-width="1" />
<line x1="479.333871" y1="-0.483136" x2="481.768890" y2="23.873271"  fill="none" stroke ="green" stroke-width="1" />
<line x1="246.537643" y1="105.473344" x2="243.649194" y2="101.394351"  fill="none" stroke ="green" stroke-width="1" />
<path d="M 142.494430,93.866224 A55.520553,55.520553 0.000000 0,1 121.756622,-4.668888" fill="none" stroke ="blue" stroke-width="1" />
<path d="M 707.693774,1151.868712 A44.015788,44.015788 0.000000 0,1 742.672317,1142.892125" fill="none" stroke ="blue" stroke-width="1" />
<path d="M 142.956998,90.991727 A42.006707,42.006707 0.000000 0,1 206.137305,39.183058" fill="none" stroke ="blue" stroke-width="1" />
<line x1="161.548883" y1="111.252105" x2="160.270980" y2="105.845101"  fill="none" stroke ="green" stroke-width="1" />
<line x1="152.372010" y1="105.311683" x2="158.581562" y2="101.091347"  fill="none" stroke ="green" stroke-width="1" />
<line x1="695.895115" y1="1158.761417" x2="697.212992" y2="1146.686966"  fill="none" stroke ="green" stroke-width="1" />
<line x1="212.275161" y1="65.997197" x2="219.226640" y2="62.888691"  fill="none" stroke ="green" stroke-width="1" />
<line x1="385.288713" y1="5.482043" x2="386.637648" y2="1.226640"  fill="none" stroke ="green" stroke-width="1" />
<line x1="284.332394" y1="495.618037" x2="288.196445" y2="503.646106"  fill="none" stroke ="green" stroke-width="1" />
<line x1="226.527740" y1="64.493656" x2="227.564628" y2="69.027858"  fill="none" stroke ="green" stroke-width="1" />
<path d="M 447.645267,110.737617 A36.031804,36.031804 0.000000 0,1 397.433121,110.604464" fill="none" stroke ="blue" stroke-width="1" />
<line x1="750.507748" y1="1136.506194" x2="725.493676" y2="1136.311173"  fill="none" stroke ="green" stroke-width="1" />
<path d="M 145.042627,105.042363 A27.103629,27.103629 0.000000 0,1 160.058616,97.372897" fill="none" stroke ="blue" stroke-width="1" />
<path d="M 406.632607,201.664083 A7.493914,7.493914 0.000000 0,1 417.526089,201.486518" fill="none" stroke ="blue" stroke-width="1" />
<line x1="821.383125" y1="316.503141" x2="821.785973" y2="331.492314"  fill="none" stroke ="green" stroke-width="1" />
<line x1="705.585551" y1="1143.039744" x2="696.167441" y2="1141.289128"  fill="none" stroke ="green" stroke-width="1" />
<line x1="389.491817" y1="8.496740" x2="392.790272" y2="0.217252"  fill="none" stroke ="green" stroke-width="1" />
<line x1="453.754448" y1="109.331946" x2="470.622511" y2="99.407962"  fill="none" stroke ="green" stroke-width="1" />
<line x1="699.339066" y1="1171.960502" x2="695.510691" y2="1158.910155"  fill="none" stroke ="green" stroke-width="1" />
<path d="M 870.897159,1243.960342 A14.023479,14.023479 0.000000 0,1 885.981866,1235.125829" fill="none" stroke ="blue" stroke-width="1" />
<path d="M 246.397978,169.845463 A8.198550,8.198550 0.000000 0,1 257.791994,164.447947" fill="none" stroke ="blue" stroke-width="1" />
<line x1="747.824528" y1="1167.001691" x2="739.448271" y2="1172.420031"  fill="none" stroke ="green" stroke-width="1" />
<line x1="218.501695" y1="66.757682" x2="222.514681" y2="66.731277"  fill="none" stroke ="green" stroke-width="1" />
<line x1="446.360839" y1="111.122068" x2="452.617226" y2="108.818362"  fill="none" stroke ="green" stroke-width="1" />
<path d="M 999.900024,296.035684 A4.864626,4.864626 0.000000 0,1 1007.498648,301.765878" fill="none" stroke ="blue" stroke-width="1" />
<line x1="259.126638" y1="168.772176" x2="249.971038" y2="173.468852"  fill="none" stroke ="green" stroke-width="1" />
<line x1="451.469506" y1="112.739504" x2="466.551587" y2="112.478266"  fill="none" stroke ="green" stroke-width="1" />
<line x1="208.810074" y1="48.956478" x2="204.599520" y2="45.382746"  fill="none" stroke ="green" stroke-width="1" />
<line x1="444.526042" y1="119.625385" x2="449.319268" y2="118.629838"  fill="none" stroke ="green" stroke-width="1" />
<line x1="540.891734" y1="142.385491" x2="531.981257" y2="146.327414"  fill="none" stroke ="green" stroke-width="1" />
<path d="M 425.724808,199.477680 A21.577297,21.577297 0.000000 0,1 444.232117,194.948611" fill="none" stroke ="blue" stroke-width="1" />
<line x1="393.225545" y1="109.688089" x2="401.258869" y2="111.543833"  fill="none" stroke ="green" stroke-width="1" />
<line x1="391.513174" y1="116.698934" x2="401.510470" y2="116.863350"  fill="none" stroke ="green" stroke-width="1" />
<path d="M 428.002020,173.131524 A729.165808,729.165808 0.000000 0,1 407.998015,173.164273" fill="none" stroke ="blue" stroke-width="1" />
<line x1="0.651919" y1="480.747459" x2="5.392711" y2="475.404797"  fill="none" stroke ="green" stroke-width="1" />
<line x1="1121.921997" y1="609.547225" x2="1121.135955" y2="616.571169"  fill="none" stroke ="green" stroke-width="1" />
<line x1="469.865107" y1="105.000851" x2="475.182006" y2="102.749133"  fill="none" stroke ="green" stroke-width="1" />
<line x1="383.832867" y1="104.944243" x2="393.837530" y2="110.936457"  fill="none" stroke ="green" stroke-width="1" />
<line x1="464.793014" y1="167.958799" x2="454.189412" y2="172.822930"  fill="none" stroke ="green" stroke-width="1" />
<line x1="399.438677" y1="174.477091" x2="384.497529" y2="173.539379"  fill="none" stroke ="green" stroke-width="1" />
<line x1="426.564981" y1="221.200947" x2="417.549755" y2="222.036701"  fill="none" stroke ="green" stroke-width="1" />
<line x1="886.093425" y1="1239.987985" x2="876.551529" y2="1247.564893"  fill="none" stroke ="green" stroke-width="1" />
<path d="M 430.031964,166.435801 A135.902730,135.902730 0.000000 0,1 407.976829,166.258909" fill="none" stroke ="blue" stroke-width="1" />
<line x1="430.810469" y1="179.176549" x2="426.129702" y2="178.078485"  fill="none" stroke ="green" stroke-width="1" />
<line x1="478.343325" y1="93.259934" x2="485.083165" y2="88.861301"  fill="none" stroke ="green" stroke-width="1" />
<line x1="459.493889" y1="188.738294" x2="474.509659" y2="189.123353"  fill="none" stroke ="green" stroke-width="1" />
<line x1="421.888732" y1="197.704332" x2="427.036734" y2="198.686381"  fill="none" stroke ="green" stroke-width="1" />
<path d="M 6.707470,473.331188 A8.943787,5.307102 -31.402712 0,1 0.231224,486.042980" fill="none" stroke ="red" stroke-width="1" />
<line x1="450.491103" y1="178.590273" x2="439.401706" y2="177.497350"  fill="none" stroke ="green" stroke-width="1" />
<line x1="497.534527" y1="16.501058" x2="497.197761" y2="27.490738"  fill="none" stroke ="green" stroke-width="1" />
<line x1="446.636424" y1="199.691489" x2="457.904283" y2="191.663834"  fill="none" stroke ="green" stroke-width="1" />
<line x1="211.313303" y1="32.189967" x2="200.392590" y2="33.746313"  fill="none" stroke ="green" stroke-width="1" />
<line x1="714.732530" y1="1174.575283" x2="711.012046" y2="1169.616351"  fill="none" stroke ="green" stroke-width="1" />
</svg>
